<svg xmlns="http://www.w3.org/2000/svg" viewBox="0 0 1200 1400" role="img" aria-labelledby="title desc">
  <title id="title">Camiseta Puerto Rico</title><desc id="desc">Camiseta negra con coche clásico rojo y arquitectura colonial puertorriqueña.</desc>
  <defs><linearGradient id="sun" x2="0" y2="1"><stop stop-color="#f08a55"/><stop offset=".52" stop-color="#612426"/><stop offset="1" stop-color="#090708"/></linearGradient></defs>
  <rect width="1200" height="1400" fill="#0a0809"/><path d="M360 160 505 55h190l145 105 190 72-82 192v830H252V424l-82-192z" fill="#070708" stroke="#322022" stroke-width="8"/><path d="M505 55c18 100 172 100 190 0" fill="none" stroke="#322022" stroke-width="8"/>
  <g transform="translate(325 320)"><rect width="550" height="610" rx="18" fill="url(#sun)" stroke="#e23232" stroke-opacity=".35"/><circle cx="420" cy="130" r="78" fill="#ffd29b" opacity=".75"/><path d="M0 250h130v-88h110v88h84V130h126v120h100v190H0z" fill="#d98567"/><g fill="#242126"><path d="M28 286h58v154H28zM150 208h48v232h-48zM356 180h58v260h-58zM468 295h50v145h-50z"/><path d="M15 250h92v-24H15zM134 162h82v-22h-82zM339 130h92v-24h-92zM452 250h82v-22h-82z"/></g><g transform="translate(35 384)"><path d="m12 93 70-51 104-18h149l104 54 53 69-35 43H40L5 151z" fill="#b51521" stroke="#f04b50" stroke-width="6"/><path d="m154 42 53-23h104l65 48z" fill="#20191a"/><path d="M23 120h452" stroke="#f9b0a2" stroke-width="7"/><circle cx="121" cy="178" r="48" fill="#0b0b0c" stroke="#ded5ca" stroke-width="12"/><circle cx="388" cy="178" r="48" fill="#0b0b0c" stroke="#ded5ca" stroke-width="12"/></g><text x="275" y="76" fill="#fff3e6" font-family="Georgia,serif" font-size="42" font-style="italic" text-anchor="middle">Puerto Rico</text><text x="275" y="580" fill="white" font-family="Arial,sans-serif" font-size="16" font-weight="700" text-anchor="middle" letter-spacing="7">ORGULLO · CULTURA · DISCIPLINA</text></g>
  <text x="600" y="1050" fill="#d92732" font-family="Arial,sans-serif" font-size="30" font-weight="700" text-anchor="middle" letter-spacing="12">GUANCHEWEAR</text>
</svg>
